<mxfile host="app.diagrams.net" agent="Mozilla/5.0 (Windows NT 10.0; Win64; x64) AppleWebKit/537.36 (KHTML, like Gecko) Chrome/122.0.0.0 Safari/537.36" version="25.0.1" pages="2">
  <diagram name="Диаграмма состояний" id="-ia1XRWDqvNjZKq9F5LT">
    <mxGraphModel dx="1071" dy="575" grid="1" gridSize="10" guides="1" tooltips="1" connect="1" arrows="1" fold="1" page="1" pageScale="1" pageWidth="827" pageHeight="1169" math="0" shadow="0">
      <root>
        <mxCell id="0" />
        <mxCell id="1" parent="0" />
        <mxCell id="6JBC2HfJFMJHbXSkUIAE-1" value="Оформлен" style="rounded=1;whiteSpace=wrap;html=1;arcSize=40;fontColor=#000000;fillColor=#FFFFFF;strokeColor=#000000;" vertex="1" parent="1">
          <mxGeometry x="160" y="23" width="120" height="40" as="geometry" />
        </mxCell>
        <mxCell id="6JBC2HfJFMJHbXSkUIAE-2" value="" style="edgeStyle=orthogonalEdgeStyle;html=1;verticalAlign=bottom;endArrow=open;endSize=8;strokeColor=#000000;rounded=0;entryX=0;entryY=0.5;entryDx=0;entryDy=0;" edge="1" source="6JBC2HfJFMJHbXSkUIAE-1" parent="1" target="vcrXJnd11jB80eR0WV7F-1">
          <mxGeometry relative="1" as="geometry">
            <mxPoint x="320" y="43" as="targetPoint" />
          </mxGeometry>
        </mxCell>
        <mxCell id="vcrXJnd11jB80eR0WV7F-16" value="[заказ оформлен] /&lt;div&gt;перейти к оплате&lt;/div&gt;" style="edgeLabel;html=1;align=center;verticalAlign=middle;resizable=0;points=[];" vertex="1" connectable="0" parent="6JBC2HfJFMJHbXSkUIAE-2">
          <mxGeometry x="-0.16" y="4" relative="1" as="geometry">
            <mxPoint x="1" y="-16" as="offset" />
          </mxGeometry>
        </mxCell>
        <mxCell id="6JBC2HfJFMJHbXSkUIAE-4" value="" style="edgeStyle=orthogonalEdgeStyle;html=1;verticalAlign=bottom;endArrow=open;endSize=8;strokeColor=#000000;rounded=0;entryX=0;entryY=0.5;entryDx=0;entryDy=0;exitX=1;exitY=0.5;exitDx=0;exitDy=0;" edge="1" source="vcrXJnd11jB80eR0WV7F-30" parent="1" target="6JBC2HfJFMJHbXSkUIAE-1">
          <mxGeometry relative="1" as="geometry">
            <mxPoint x="105" y="163" as="targetPoint" />
            <mxPoint x="110" y="43" as="sourcePoint" />
          </mxGeometry>
        </mxCell>
        <mxCell id="vcrXJnd11jB80eR0WV7F-1" value="Оплачен" style="rounded=1;whiteSpace=wrap;html=1;arcSize=40;fontColor=#000000;fillColor=#ffffff;strokeColor=#000000;" vertex="1" parent="1">
          <mxGeometry x="420" y="23" width="120" height="40" as="geometry" />
        </mxCell>
        <mxCell id="vcrXJnd11jB80eR0WV7F-2" value="" style="edgeStyle=orthogonalEdgeStyle;html=1;verticalAlign=bottom;endArrow=open;endSize=8;strokeColor=#000000;rounded=0;exitX=1;exitY=0.5;exitDx=0;exitDy=0;entryX=0.841;entryY=0.02;entryDx=0;entryDy=0;entryPerimeter=0;" edge="1" source="vcrXJnd11jB80eR0WV7F-1" parent="1" target="vcrXJnd11jB80eR0WV7F-3">
          <mxGeometry relative="1" as="geometry">
            <mxPoint x="750" y="43" as="targetPoint" />
            <mxPoint x="660" y="43" as="sourcePoint" />
            <Array as="points">
              <mxPoint x="621" y="43" />
              <mxPoint x="621" y="107" />
            </Array>
          </mxGeometry>
        </mxCell>
        <mxCell id="vcrXJnd11jB80eR0WV7F-17" value="[заказ оплачен] /&lt;div&gt;передать на исполнение&lt;/div&gt;" style="edgeLabel;html=1;align=center;verticalAlign=middle;resizable=0;points=[];" vertex="1" connectable="0" parent="vcrXJnd11jB80eR0WV7F-2">
          <mxGeometry x="-0.4542" y="3" relative="1" as="geometry">
            <mxPoint x="36" y="-17" as="offset" />
          </mxGeometry>
        </mxCell>
        <mxCell id="vcrXJnd11jB80eR0WV7F-3" value="Передан на исполнение" style="swimlane;fontStyle=1;align=center;verticalAlign=middle;childLayout=stackLayout;horizontal=1;startSize=30;horizontalStack=0;resizeParent=0;resizeLast=1;container=0;fontColor=#000000;collapsible=0;rounded=1;arcSize=30;strokeColor=#000000;fillColor=#ffffff;swimlaneFillColor=#ffffff;dropTarget=0;" vertex="1" parent="1">
          <mxGeometry x="19" y="103" width="720" height="220" as="geometry" />
        </mxCell>
        <mxCell id="vcrXJnd11jB80eR0WV7F-6" value="В очереди" style="rounded=1;whiteSpace=wrap;html=1;arcSize=40;fontColor=#000000;fillColor=#FFFFFF;strokeColor=#000000;" vertex="1" parent="1">
          <mxGeometry x="139" y="178" width="120" height="40" as="geometry" />
        </mxCell>
        <mxCell id="vcrXJnd11jB80eR0WV7F-7" value="" style="edgeStyle=orthogonalEdgeStyle;html=1;verticalAlign=bottom;endArrow=open;endSize=8;strokeColor=#000000;rounded=0;entryX=0;entryY=0.5;entryDx=0;entryDy=0;" edge="1" source="vcrXJnd11jB80eR0WV7F-6" parent="1" target="vcrXJnd11jB80eR0WV7F-22">
          <mxGeometry relative="1" as="geometry">
            <mxPoint x="319" y="198" as="targetPoint" />
          </mxGeometry>
        </mxCell>
        <mxCell id="vcrXJnd11jB80eR0WV7F-9" value="" style="edgeStyle=orthogonalEdgeStyle;html=1;align=left;verticalAlign=bottom;endArrow=open;endSize=8;strokeColor=#000000;rounded=0;entryX=0;entryY=0.5;entryDx=0;entryDy=0;exitX=1;exitY=0.5;exitDx=0;exitDy=0;" edge="1" source="vcrXJnd11jB80eR0WV7F-22" parent="1" target="vcrXJnd11jB80eR0WV7F-11">
          <mxGeometry x="-1" relative="1" as="geometry">
            <mxPoint x="479" y="198" as="targetPoint" />
            <mxPoint x="399" y="198" as="sourcePoint" />
            <mxPoint as="offset" />
          </mxGeometry>
        </mxCell>
        <mxCell id="vcrXJnd11jB80eR0WV7F-13" value="&lt;span style=&quot;&quot;&gt;[есть свободный&amp;nbsp;&lt;/span&gt;&lt;div&gt;&lt;span style=&quot;&quot;&gt;персонал]&lt;/span&gt;&lt;/div&gt;" style="edgeLabel;html=1;align=center;verticalAlign=middle;resizable=0;points=[];labelBackgroundColor=#FFFFFF;" vertex="1" connectable="0" parent="vcrXJnd11jB80eR0WV7F-9">
          <mxGeometry x="-0.2251" y="-1" relative="1" as="geometry">
            <mxPoint x="11" y="-16" as="offset" />
          </mxGeometry>
        </mxCell>
        <mxCell id="vcrXJnd11jB80eR0WV7F-10" value="" style="edgeStyle=orthogonalEdgeStyle;html=1;align=left;verticalAlign=top;endArrow=open;endSize=8;strokeColor=#000000;rounded=0;entryX=0.5;entryY=1;entryDx=0;entryDy=0;exitX=0.5;exitY=1;exitDx=0;exitDy=0;" edge="1" source="vcrXJnd11jB80eR0WV7F-22" parent="1" target="vcrXJnd11jB80eR0WV7F-6">
          <mxGeometry x="-1" relative="1" as="geometry">
            <mxPoint x="179" y="258" as="targetPoint" />
            <mxPoint x="369" y="238" as="sourcePoint" />
            <Array as="points">
              <mxPoint x="364" y="258" />
              <mxPoint x="199" y="258" />
            </Array>
          </mxGeometry>
        </mxCell>
        <mxCell id="vcrXJnd11jB80eR0WV7F-15" value="[нет свободного&amp;nbsp;&lt;div&gt;персонала]&lt;/div&gt;" style="edgeLabel;html=1;align=center;verticalAlign=middle;resizable=0;points=[];labelBackgroundColor=#FFFFFF;" vertex="1" connectable="0" parent="vcrXJnd11jB80eR0WV7F-10">
          <mxGeometry x="-0.0839" y="3" relative="1" as="geometry">
            <mxPoint x="-10" y="17" as="offset" />
          </mxGeometry>
        </mxCell>
        <mxCell id="vcrXJnd11jB80eR0WV7F-11" value="Выполняется" style="rounded=1;whiteSpace=wrap;html=1;arcSize=40;fontColor=#000000;fillColor=#FFFFFF;strokeColor=#000000;" vertex="1" parent="1">
          <mxGeometry x="499" y="178" width="120" height="40" as="geometry" />
        </mxCell>
        <mxCell id="vcrXJnd11jB80eR0WV7F-19" value="" style="ellipse;" vertex="1" parent="1">
          <mxGeometry x="39" y="183" width="30" height="30" as="geometry" />
        </mxCell>
        <mxCell id="vcrXJnd11jB80eR0WV7F-22" value="" style="rhombus;" vertex="1" parent="1">
          <mxGeometry x="349" y="183" width="30" height="30" as="geometry" />
        </mxCell>
        <mxCell id="vcrXJnd11jB80eR0WV7F-26" value="" style="shape=sumEllipse;perimeter=ellipsePerimeter;html=1;backgroundOutline=1;" vertex="1" parent="1">
          <mxGeometry x="689" y="183" width="30" height="30" as="geometry" />
        </mxCell>
        <mxCell id="vcrXJnd11jB80eR0WV7F-27" value="" style="edgeStyle=orthogonalEdgeStyle;html=1;verticalAlign=bottom;endArrow=open;endSize=8;strokeColor=#000000;rounded=0;exitX=1;exitY=0.5;exitDx=0;exitDy=0;entryX=0;entryY=0.5;entryDx=0;entryDy=0;" edge="1" parent="1" source="vcrXJnd11jB80eR0WV7F-19" target="vcrXJnd11jB80eR0WV7F-6">
          <mxGeometry relative="1" as="geometry">
            <mxPoint x="119" y="199" as="targetPoint" />
            <mxPoint x="99" y="278" as="sourcePoint" />
          </mxGeometry>
        </mxCell>
        <mxCell id="vcrXJnd11jB80eR0WV7F-28" value="" style="edgeStyle=orthogonalEdgeStyle;html=1;verticalAlign=bottom;endArrow=open;endSize=8;strokeColor=#000000;rounded=0;exitX=1;exitY=0.5;exitDx=0;exitDy=0;entryX=0;entryY=0.5;entryDx=0;entryDy=0;" edge="1" parent="1" source="vcrXJnd11jB80eR0WV7F-11" target="vcrXJnd11jB80eR0WV7F-26">
          <mxGeometry relative="1" as="geometry">
            <mxPoint x="669" y="198" as="targetPoint" />
            <mxPoint x="629" y="197.86" as="sourcePoint" />
          </mxGeometry>
        </mxCell>
        <mxCell id="vcrXJnd11jB80eR0WV7F-30" value="" style="ellipse;fillColor=strokeColor;html=1;" vertex="1" parent="1">
          <mxGeometry x="70" y="28" width="30" height="30" as="geometry" />
        </mxCell>
        <mxCell id="vcrXJnd11jB80eR0WV7F-31" value="" style="ellipse;html=1;shape=endState;fillColor=strokeColor;" vertex="1" parent="1">
          <mxGeometry x="779" y="183" width="30" height="30" as="geometry" />
        </mxCell>
        <mxCell id="vcrXJnd11jB80eR0WV7F-32" value="" style="edgeStyle=orthogonalEdgeStyle;html=1;verticalAlign=bottom;endArrow=open;endSize=8;strokeColor=#000000;rounded=0;entryX=0;entryY=0.5;entryDx=0;entryDy=0;" edge="1" parent="1" target="vcrXJnd11jB80eR0WV7F-31">
          <mxGeometry relative="1" as="geometry">
            <mxPoint x="789" y="233" as="targetPoint" />
            <mxPoint x="739" y="198" as="sourcePoint" />
          </mxGeometry>
        </mxCell>
      </root>
    </mxGraphModel>
  </diagram>
  <diagram id="V08DWiQktCGzpCF97_5T" name="Диаграмма деятельности">
    <mxGraphModel dx="1655" dy="889" grid="1" gridSize="10" guides="1" tooltips="1" connect="1" arrows="1" fold="1" page="1" pageScale="1" pageWidth="827" pageHeight="1169" math="0" shadow="0">
      <root>
        <mxCell id="0" />
        <mxCell id="1" parent="0" />
        <mxCell id="5WBv0nF4ADOETWSFsWZ3-1" value="frame" style="shape=umlFrame;whiteSpace=wrap;html=1;pointerEvents=0;" vertex="1" parent="1">
          <mxGeometry x="40" y="40" width="760" height="1000" as="geometry" />
        </mxCell>
        <mxCell id="5WBv0nF4ADOETWSFsWZ3-3" value="" style="html=1;verticalAlign=bottom;endArrow=none;rounded=0;edgeStyle=orthogonalEdgeStyle;endFill=0;" edge="1" parent="1">
          <mxGeometry width="80" relative="1" as="geometry">
            <mxPoint x="280" y="1040" as="sourcePoint" />
            <mxPoint x="280" y="40" as="targetPoint" />
          </mxGeometry>
        </mxCell>
        <mxCell id="5WBv0nF4ADOETWSFsWZ3-4" value="Участник" style="html=1;whiteSpace=wrap;" vertex="1" parent="1">
          <mxGeometry x="105" y="80" width="110" height="50" as="geometry" />
        </mxCell>
        <mxCell id="5WBv0nF4ADOETWSFsWZ3-5" value="Система" style="html=1;whiteSpace=wrap;" vertex="1" parent="1">
          <mxGeometry x="363" y="80" width="110" height="50" as="geometry" />
        </mxCell>
        <mxCell id="5WBv0nF4ADOETWSFsWZ3-6" value="Персонал" style="html=1;whiteSpace=wrap;" vertex="1" parent="1">
          <mxGeometry x="625" y="80" width="110" height="50" as="geometry" />
        </mxCell>
        <mxCell id="5WBv0nF4ADOETWSFsWZ3-7" value="" style="html=1;verticalAlign=bottom;endArrow=none;rounded=0;edgeStyle=orthogonalEdgeStyle;endFill=0;" edge="1" parent="1">
          <mxGeometry width="80" relative="1" as="geometry">
            <mxPoint x="560" y="1040" as="sourcePoint" />
            <mxPoint x="560" y="40" as="targetPoint" />
          </mxGeometry>
        </mxCell>
        <mxCell id="5WBv0nF4ADOETWSFsWZ3-8" value="" style="ellipse;fillColor=strokeColor;html=1;" vertex="1" parent="1">
          <mxGeometry x="145" y="160" width="30" height="30" as="geometry" />
        </mxCell>
        <mxCell id="5WBv0nF4ADOETWSFsWZ3-9" value="Посетить клуб" style="html=1;align=center;verticalAlign=top;rounded=1;absoluteArcSize=1;arcSize=10;dashed=0;whiteSpace=wrap;" vertex="1" parent="1">
          <mxGeometry x="90" y="240" width="140" height="40" as="geometry" />
        </mxCell>
        <mxCell id="5WBv0nF4ADOETWSFsWZ3-10" value="" style="endArrow=open;endFill=1;endSize=12;html=1;rounded=0;edgeStyle=orthogonalEdgeStyle;exitX=0.5;exitY=1;exitDx=0;exitDy=0;entryX=0.5;entryY=0;entryDx=0;entryDy=0;" edge="1" parent="1" source="5WBv0nF4ADOETWSFsWZ3-8" target="5WBv0nF4ADOETWSFsWZ3-9">
          <mxGeometry width="160" relative="1" as="geometry">
            <mxPoint x="140" y="320" as="sourcePoint" />
            <mxPoint x="300" y="320" as="targetPoint" />
          </mxGeometry>
        </mxCell>
        <mxCell id="5WBv0nF4ADOETWSFsWZ3-11" value="Учесть посещение" style="html=1;align=center;verticalAlign=top;rounded=1;absoluteArcSize=1;arcSize=10;dashed=0;whiteSpace=wrap;" vertex="1" parent="1">
          <mxGeometry x="348" y="320" width="140" height="40" as="geometry" />
        </mxCell>
        <mxCell id="5WBv0nF4ADOETWSFsWZ3-12" value="Предоставить список доступных услуг" style="html=1;align=center;verticalAlign=top;rounded=1;absoluteArcSize=1;arcSize=10;dashed=0;whiteSpace=wrap;" vertex="1" parent="1">
          <mxGeometry x="348" y="400" width="140" height="40" as="geometry" />
        </mxCell>
        <mxCell id="5WBv0nF4ADOETWSFsWZ3-13" value="" style="endArrow=open;endFill=1;endSize=12;html=1;rounded=0;edgeStyle=orthogonalEdgeStyle;exitX=1;exitY=0.5;exitDx=0;exitDy=0;entryX=0.5;entryY=0;entryDx=0;entryDy=0;" edge="1" parent="1" source="5WBv0nF4ADOETWSFsWZ3-9" target="5WBv0nF4ADOETWSFsWZ3-11">
          <mxGeometry width="160" relative="1" as="geometry">
            <mxPoint x="170" y="190" as="sourcePoint" />
            <mxPoint x="170" y="250" as="targetPoint" />
          </mxGeometry>
        </mxCell>
        <mxCell id="5WBv0nF4ADOETWSFsWZ3-14" value="" style="endArrow=open;endFill=1;endSize=12;html=1;rounded=0;edgeStyle=orthogonalEdgeStyle;exitX=0.5;exitY=1;exitDx=0;exitDy=0;" edge="1" parent="1" source="5WBv0nF4ADOETWSFsWZ3-11" target="5WBv0nF4ADOETWSFsWZ3-12">
          <mxGeometry width="160" relative="1" as="geometry">
            <mxPoint x="420" y="360" as="sourcePoint" />
            <mxPoint x="170" y="250" as="targetPoint" />
          </mxGeometry>
        </mxCell>
        <mxCell id="5WBv0nF4ADOETWSFsWZ3-15" value="Выбрать услугу" style="html=1;align=center;verticalAlign=top;rounded=1;absoluteArcSize=1;arcSize=10;dashed=0;whiteSpace=wrap;" vertex="1" parent="1">
          <mxGeometry x="90" y="480" width="140" height="40" as="geometry" />
        </mxCell>
        <mxCell id="5WBv0nF4ADOETWSFsWZ3-16" value="" style="endArrow=open;endFill=1;endSize=12;html=1;rounded=0;edgeStyle=orthogonalEdgeStyle;exitX=0;exitY=0.5;exitDx=0;exitDy=0;entryX=0.5;entryY=0;entryDx=0;entryDy=0;" edge="1" parent="1" source="5WBv0nF4ADOETWSFsWZ3-12" target="5WBv0nF4ADOETWSFsWZ3-15">
          <mxGeometry width="160" relative="1" as="geometry">
            <mxPoint x="250" y="400" as="sourcePoint" />
            <mxPoint x="250" y="440" as="targetPoint" />
          </mxGeometry>
        </mxCell>
        <mxCell id="5WBv0nF4ADOETWSFsWZ3-17" value="Сформировать заказ" style="html=1;align=center;verticalAlign=top;rounded=1;absoluteArcSize=1;arcSize=10;dashed=0;whiteSpace=wrap;" vertex="1" parent="1">
          <mxGeometry x="350" y="560" width="140" height="40" as="geometry" />
        </mxCell>
        <mxCell id="5WBv0nF4ADOETWSFsWZ3-18" value="" style="endArrow=open;endFill=1;endSize=12;html=1;rounded=0;edgeStyle=orthogonalEdgeStyle;exitX=1;exitY=0.5;exitDx=0;exitDy=0;entryX=0.5;entryY=0;entryDx=0;entryDy=0;" edge="1" parent="1" source="5WBv0nF4ADOETWSFsWZ3-15" target="5WBv0nF4ADOETWSFsWZ3-17">
          <mxGeometry width="160" relative="1" as="geometry">
            <mxPoint x="514" y="510" as="sourcePoint" />
            <mxPoint x="326" y="570" as="targetPoint" />
          </mxGeometry>
        </mxCell>
        <mxCell id="5WBv0nF4ADOETWSFsWZ3-19" value="Оплатить заказ" style="html=1;align=center;verticalAlign=top;rounded=1;absoluteArcSize=1;arcSize=10;dashed=0;whiteSpace=wrap;" vertex="1" parent="1">
          <mxGeometry x="90" y="640" width="140" height="40" as="geometry" />
        </mxCell>
        <mxCell id="5WBv0nF4ADOETWSFsWZ3-20" value="" style="endArrow=open;endFill=1;endSize=12;html=1;rounded=0;edgeStyle=orthogonalEdgeStyle;exitX=0;exitY=0.5;exitDx=0;exitDy=0;entryX=0.5;entryY=0;entryDx=0;entryDy=0;" edge="1" parent="1" source="5WBv0nF4ADOETWSFsWZ3-17" target="5WBv0nF4ADOETWSFsWZ3-19">
          <mxGeometry width="160" relative="1" as="geometry">
            <mxPoint x="282.5" y="670" as="sourcePoint" />
            <mxPoint x="472.5" y="730" as="targetPoint" />
          </mxGeometry>
        </mxCell>
        <mxCell id="5WBv0nF4ADOETWSFsWZ3-21" value="Поместить в очередь" style="html=1;align=center;verticalAlign=top;rounded=1;absoluteArcSize=1;arcSize=10;dashed=0;whiteSpace=wrap;" vertex="1" parent="1">
          <mxGeometry x="348" y="720" width="140" height="40" as="geometry" />
        </mxCell>
        <mxCell id="5WBv0nF4ADOETWSFsWZ3-22" value="Оказать услугу" style="html=1;align=center;verticalAlign=top;rounded=1;absoluteArcSize=1;arcSize=10;dashed=0;whiteSpace=wrap;" vertex="1" parent="1">
          <mxGeometry x="610" y="800" width="140" height="40" as="geometry" />
        </mxCell>
        <mxCell id="5WBv0nF4ADOETWSFsWZ3-25" value="" style="rhombus;" vertex="1" parent="1">
          <mxGeometry x="665" y="725" width="30" height="30" as="geometry" />
        </mxCell>
        <mxCell id="5WBv0nF4ADOETWSFsWZ3-26" value="" style="endArrow=open;endFill=1;endSize=12;html=1;rounded=0;edgeStyle=orthogonalEdgeStyle;exitX=0.5;exitY=1;exitDx=0;exitDy=0;entryX=0.5;entryY=0;entryDx=0;entryDy=0;" edge="1" parent="1" source="5WBv0nF4ADOETWSFsWZ3-25" target="5WBv0nF4ADOETWSFsWZ3-22">
          <mxGeometry width="160" relative="1" as="geometry">
            <mxPoint x="470" y="850" as="sourcePoint" />
            <mxPoint x="470" y="900" as="targetPoint" />
          </mxGeometry>
        </mxCell>
        <mxCell id="5WBv0nF4ADOETWSFsWZ3-34" value="[есть свободный&lt;div&gt;персонал]&lt;/div&gt;" style="edgeLabel;html=1;align=center;verticalAlign=middle;resizable=0;points=[];" vertex="1" connectable="0" parent="5WBv0nF4ADOETWSFsWZ3-26">
          <mxGeometry x="-0.4473" y="2" relative="1" as="geometry">
            <mxPoint x="48" y="3" as="offset" />
          </mxGeometry>
        </mxCell>
        <mxCell id="5WBv0nF4ADOETWSFsWZ3-27" value="" style="endArrow=open;endFill=1;endSize=12;html=1;rounded=0;edgeStyle=orthogonalEdgeStyle;exitX=1;exitY=0.5;exitDx=0;exitDy=0;entryX=0;entryY=0.5;entryDx=0;entryDy=0;" edge="1" parent="1" source="5WBv0nF4ADOETWSFsWZ3-21" target="5WBv0nF4ADOETWSFsWZ3-25">
          <mxGeometry width="160" relative="1" as="geometry">
            <mxPoint x="363" y="770" as="sourcePoint" />
            <mxPoint x="363" y="810" as="targetPoint" />
          </mxGeometry>
        </mxCell>
        <mxCell id="5WBv0nF4ADOETWSFsWZ3-29" value="" style="rhombus;" vertex="1" parent="1">
          <mxGeometry x="403" y="645" width="30" height="30" as="geometry" />
        </mxCell>
        <mxCell id="5WBv0nF4ADOETWSFsWZ3-30" value="" style="endArrow=open;endFill=1;endSize=12;html=1;rounded=0;edgeStyle=orthogonalEdgeStyle;exitX=1;exitY=0.5;exitDx=0;exitDy=0;entryX=0;entryY=0.5;entryDx=0;entryDy=0;" edge="1" parent="1" source="5WBv0nF4ADOETWSFsWZ3-19" target="5WBv0nF4ADOETWSFsWZ3-29">
          <mxGeometry width="160" relative="1" as="geometry">
            <mxPoint x="80" y="740" as="sourcePoint" />
            <mxPoint x="257" y="740" as="targetPoint" />
          </mxGeometry>
        </mxCell>
        <mxCell id="5WBv0nF4ADOETWSFsWZ3-31" value="" style="endArrow=open;endFill=1;endSize=12;html=1;rounded=0;edgeStyle=orthogonalEdgeStyle;exitX=0.5;exitY=1;exitDx=0;exitDy=0;entryX=0.5;entryY=0;entryDx=0;entryDy=0;" edge="1" parent="1" source="5WBv0nF4ADOETWSFsWZ3-29" target="5WBv0nF4ADOETWSFsWZ3-21">
          <mxGeometry width="160" relative="1" as="geometry">
            <mxPoint x="510" y="670" as="sourcePoint" />
            <mxPoint x="510" y="715" as="targetPoint" />
          </mxGeometry>
        </mxCell>
        <mxCell id="5WBv0nF4ADOETWSFsWZ3-49" value="[оплата&lt;div&gt;прошла]&lt;/div&gt;" style="edgeLabel;html=1;align=center;verticalAlign=middle;resizable=0;points=[];" vertex="1" connectable="0" parent="5WBv0nF4ADOETWSFsWZ3-31">
          <mxGeometry x="-0.0844" y="-2" relative="1" as="geometry">
            <mxPoint x="-26" y="-6" as="offset" />
          </mxGeometry>
        </mxCell>
        <mxCell id="5WBv0nF4ADOETWSFsWZ3-32" value="" style="ellipse;html=1;shape=endState;fillColor=strokeColor;" vertex="1" parent="1">
          <mxGeometry x="505" y="645" width="30" height="30" as="geometry" />
        </mxCell>
        <mxCell id="5WBv0nF4ADOETWSFsWZ3-33" value="" style="endArrow=open;endFill=1;endSize=12;html=1;rounded=0;edgeStyle=orthogonalEdgeStyle;entryX=0;entryY=0.5;entryDx=0;entryDy=0;exitX=1;exitY=0.5;exitDx=0;exitDy=0;" edge="1" parent="1" source="5WBv0nF4ADOETWSFsWZ3-29" target="5WBv0nF4ADOETWSFsWZ3-32">
          <mxGeometry width="160" relative="1" as="geometry">
            <mxPoint x="450" y="660" as="sourcePoint" />
            <mxPoint x="403" y="700" as="targetPoint" />
          </mxGeometry>
        </mxCell>
        <mxCell id="5WBv0nF4ADOETWSFsWZ3-48" value="[оплата не&amp;nbsp;&lt;div&gt;прошла]&lt;/div&gt;" style="edgeLabel;html=1;align=center;verticalAlign=middle;resizable=0;points=[];" vertex="1" connectable="0" parent="5WBv0nF4ADOETWSFsWZ3-33">
          <mxGeometry x="-0.2702" y="5" relative="1" as="geometry">
            <mxPoint x="2" y="-10" as="offset" />
          </mxGeometry>
        </mxCell>
        <mxCell id="5WBv0nF4ADOETWSFsWZ3-36" value="" style="endArrow=open;endFill=1;endSize=12;html=1;rounded=0;edgeStyle=orthogonalEdgeStyle;exitX=0.5;exitY=0;exitDx=0;exitDy=0;entryX=0.75;entryY=0;entryDx=0;entryDy=0;" edge="1" parent="1" source="5WBv0nF4ADOETWSFsWZ3-25" target="5WBv0nF4ADOETWSFsWZ3-21">
          <mxGeometry width="160" relative="1" as="geometry">
            <mxPoint x="670" y="610" as="sourcePoint" />
            <mxPoint x="670" y="655" as="targetPoint" />
            <Array as="points">
              <mxPoint x="680" y="690" />
              <mxPoint x="453" y="690" />
            </Array>
          </mxGeometry>
        </mxCell>
        <mxCell id="5WBv0nF4ADOETWSFsWZ3-37" value="[нет свободного&lt;div&gt;персонала]&lt;/div&gt;" style="edgeLabel;html=1;align=center;verticalAlign=middle;resizable=0;points=[];" vertex="1" connectable="0" parent="5WBv0nF4ADOETWSFsWZ3-36">
          <mxGeometry x="-0.4473" y="2" relative="1" as="geometry">
            <mxPoint x="-9" y="-17" as="offset" />
          </mxGeometry>
        </mxCell>
        <mxCell id="5WBv0nF4ADOETWSFsWZ3-43" value="&amp;lt;&amp;lt;decisionInput&amp;gt;&amp;gt;&lt;div&gt;есть свободный персонал&lt;br&gt;&lt;/div&gt;" style="shape=note2;boundedLbl=1;whiteSpace=wrap;html=1;size=18;verticalAlign=top;align=center;" vertex="1" parent="1">
          <mxGeometry x="760" y="660" width="160" height="80" as="geometry" />
        </mxCell>
        <mxCell id="5WBv0nF4ADOETWSFsWZ3-44" value="" style="endArrow=none;endFill=0;endSize=12;html=1;rounded=0;entryX=1;entryY=0.5;entryDx=0;entryDy=0;exitX=0;exitY=0.5;exitDx=0;exitDy=0;exitPerimeter=0;dashed=1;" edge="1" parent="1" source="5WBv0nF4ADOETWSFsWZ3-43" target="5WBv0nF4ADOETWSFsWZ3-25">
          <mxGeometry width="160" relative="1" as="geometry">
            <mxPoint x="840" y="770" as="sourcePoint" />
            <mxPoint x="839.71" y="815" as="targetPoint" />
          </mxGeometry>
        </mxCell>
        <mxCell id="5WBv0nF4ADOETWSFsWZ3-46" value="&amp;lt;&amp;lt;decisionInput&amp;gt;&amp;gt;&lt;div&gt;прошла ли оплата&lt;br&gt;&lt;/div&gt;" style="shape=note2;boundedLbl=1;whiteSpace=wrap;html=1;size=18;verticalAlign=top;align=center;" vertex="1" parent="1">
          <mxGeometry x="535" y="540" width="160" height="80" as="geometry" />
        </mxCell>
        <mxCell id="5WBv0nF4ADOETWSFsWZ3-47" value="" style="endArrow=none;endFill=0;endSize=12;html=1;rounded=0;entryX=0.5;entryY=0;entryDx=0;entryDy=0;exitX=0;exitY=0.5;exitDx=0;exitDy=0;exitPerimeter=0;dashed=1;edgeStyle=orthogonalEdgeStyle;" edge="1" parent="1" source="5WBv0nF4ADOETWSFsWZ3-46" target="5WBv0nF4ADOETWSFsWZ3-29">
          <mxGeometry width="160" relative="1" as="geometry">
            <mxPoint x="538" y="600" as="sourcePoint" />
            <mxPoint x="473" y="640" as="targetPoint" />
            <Array as="points">
              <mxPoint x="510" y="580" />
              <mxPoint x="510" y="620" />
              <mxPoint x="418" y="620" />
            </Array>
          </mxGeometry>
        </mxCell>
        <mxCell id="W3ItA-UTGfovyWN4rnlF-1" value="Составить акт оказания услуги" style="html=1;align=center;verticalAlign=top;rounded=1;absoluteArcSize=1;arcSize=10;dashed=0;whiteSpace=wrap;" vertex="1" parent="1">
          <mxGeometry x="348" y="880" width="140" height="40" as="geometry" />
        </mxCell>
        <mxCell id="W3ItA-UTGfovyWN4rnlF-2" value="" style="ellipse;html=1;shape=endState;fillColor=strokeColor;" vertex="1" parent="1">
          <mxGeometry x="403" y="970" width="30" height="30" as="geometry" />
        </mxCell>
        <mxCell id="W3ItA-UTGfovyWN4rnlF-3" value="" style="endArrow=open;endFill=1;endSize=12;html=1;rounded=0;edgeStyle=orthogonalEdgeStyle;exitX=0.5;exitY=1;exitDx=0;exitDy=0;entryX=0.5;entryY=0;entryDx=0;entryDy=0;" edge="1" parent="1" target="W3ItA-UTGfovyWN4rnlF-2" source="W3ItA-UTGfovyWN4rnlF-1">
          <mxGeometry width="160" relative="1" as="geometry">
            <mxPoint x="640" y="1050" as="sourcePoint" />
            <mxPoint x="710" y="1120" as="targetPoint" />
          </mxGeometry>
        </mxCell>
        <mxCell id="W3ItA-UTGfovyWN4rnlF-4" value="" style="endArrow=open;endFill=1;endSize=12;html=1;rounded=0;edgeStyle=orthogonalEdgeStyle;exitX=0;exitY=0.5;exitDx=0;exitDy=0;entryX=0.5;entryY=0;entryDx=0;entryDy=0;" edge="1" parent="1" source="5WBv0nF4ADOETWSFsWZ3-22" target="W3ItA-UTGfovyWN4rnlF-1">
          <mxGeometry width="160" relative="1" as="geometry">
            <mxPoint x="590" y="820" as="sourcePoint" />
            <mxPoint x="400" y="880" as="targetPoint" />
          </mxGeometry>
        </mxCell>
      </root>
    </mxGraphModel>
  </diagram>
</mxfile>
